<?xml version="1.0" encoding="UTF-8" standalone="no"?>
<!-- Created with Inkscape (http://www.inkscape.org/) -->

<svg
   width="60.959999mm"
   height="128.5mm"
   viewBox="0 0 60.959999 128.5"
   version="1.1"
   id="svg5"
   inkscape:version="1.1.1 (c3084ef, 2021-09-22)"
   sodipodi:docname="SIR.svg"
   xmlns:inkscape="http://www.inkscape.org/namespaces/inkscape"
   xmlns:sodipodi="http://sodipodi.sourceforge.net/DTD/sodipodi-0.dtd"
   xmlns="http://www.w3.org/2000/svg"
   xmlns:svg="http://www.w3.org/2000/svg">
  <sodipodi:namedview
     id="namedview7"
     pagecolor="#ffffff"
     bordercolor="#666666"
     borderopacity="1.0"
     inkscape:pageshadow="2"
     inkscape:pageopacity="0.0"
     inkscape:pagecheckerboard="0"
     inkscape:document-units="mm"
     showgrid="false"
     width="60.96mm"
     inkscape:zoom="1.2359944"
     inkscape:cx="105.98754"
     inkscape:cy="262.94618"
     inkscape:window-width="1333"
     inkscape:window-height="802"
     inkscape:window-x="0"
     inkscape:window-y="23"
     inkscape:window-maximized="0"
     inkscape:current-layer="layer1" />
  <defs
     id="defs2" />
  <g
     inkscape:label="Layer 1"
     inkscape:groupmode="layer"
     id="layer1">
    <rect
       style="fill:#ffffff;stroke-width:0.183088"
       id="rect284"
       width="60.860001"
       height="128.39999"
       x="0.1"
       y="0.1" />
    <g
       aria-label="Title"
       transform="matrix(1.226363,0,0,0.92366664,-5.8684498,0.33399755)"
       id="text3773"
       style="font-size:18.9035px;line-height:1.25;stroke-width:0.472588">
      <path
         d="M 21.321098,51.439176 H 16.410619 V 63.55846 H 14.583034 V 51.439176 H 9.672555 v -1.62452 h 11.648543 z"
         id="path4529" />
      <path
         d="m 24.911655,51.522248 h -1.956807 v -1.799894 h 1.956807 z M 24.800893,63.55846 H 23.065611 V 53.2483 h 1.735282 z"
         id="path4531" />
      <path
         d="m 33.606527,63.466158 q -0.489202,0.129223 -1.070706,0.212295 -0.572274,0.08307 -1.024555,0.08307 -1.578368,0 -2.399858,-0.84918 -0.82149,-0.849181 -0.82149,-2.722917 V 54.706675 H 27.117679 V 53.2483 h 1.172239 V 50.285398 H 30.0252 V 53.2483 h 3.581327 v 1.458375 H 30.0252 v 4.698184 q 0,0.81226 0.03692,1.273771 0.03692,0.452281 0.258446,0.849181 0.203065,0.369209 0.553814,0.544583 0.359978,0.166144 1.089166,0.166144 0.42459,0 0.886102,-0.119993 0.461511,-0.129223 0.664576,-0.212295 h 0.0923 z"
         id="path4533" />
      <path
         d="M 37.464761,63.55846 H 35.729479 V 49.196231 h 1.735282 z"
         id="path4535" />
      <path
         d="M 49.547125,58.583369 H 41.95065 q 0,0.950713 0.286137,1.661441 0.286137,0.701497 0.784569,1.153778 0.479972,0.44305 1.135318,0.664576 0.664576,0.221525 1.458375,0.221525 1.052246,0 2.113721,-0.41536 1.070707,-0.42459 1.522988,-0.83072 h 0.0923 v 1.892196 q -0.876872,0.369209 -1.790664,0.618425 -0.913792,0.249216 -1.919886,0.249216 -2.566003,0 -4.005918,-1.384534 -1.439915,-1.393763 -1.439915,-3.950536 0,-2.529081 1.375304,-4.015147 1.384533,-1.486066 3.636708,-1.486066 2.086031,0 3.212118,1.218389 1.135318,1.21839 1.135318,3.461334 z m -1.689131,-1.329152 q -0.0092,-1.366073 -0.692267,-2.113721 -0.673807,-0.747649 -2.05834,-0.747649 -1.393764,0 -2.224484,0.82149 -0.82149,0.82149 -0.932253,2.03988 z"
         id="path4537" />
    </g>
    <text
       xml:space="preserve"
       style="font-style:normal;font-weight:normal;font-size:7.01682px;line-height:1.25;font-family:sans-serif;fill:#000000;fill-opacity:1;stroke:none;stroke-width:0.175421"
       x="6.1060138"
       y="116.90609"
       id="text1788"
       transform="scale(1.0184556,0.98187881)"><tspan
         sodipodi:role="line"
         id="tspan1786"
         style="stroke-width:0.175421"
         x="6.1060138"
         y="116.90609">S</tspan></text>
    <text
       xml:space="preserve"
       style="font-style:normal;font-weight:normal;font-size:7.83734px;line-height:1.25;font-family:sans-serif;fill:#000000;fill-opacity:1;stroke:none;stroke-width:0.195934"
       x="23.986799"
       y="133.0256"
       id="text4408"
       transform="scale(1.1601041,0.86199159)"><tspan
         sodipodi:role="line"
         id="tspan4406"
         style="stroke-width:0.195934"
         x="23.986799"
         y="133.0256">I</tspan></text>
    <text
       xml:space="preserve"
       style="font-style:normal;font-weight:normal;font-size:7.21351px;line-height:1.25;font-family:sans-serif;fill:#000000;fill-opacity:1;stroke:none;stroke-width:0.180338"
       x="47.809696"
       y="117.33631"
       id="text5116"
       transform="scale(1.0231719,0.9773529)"><tspan
         sodipodi:role="line"
         id="tspan5114"
         style="stroke-width:0.180338"
         x="47.809696"
         y="117.33631">R</tspan></text>
    <rect
       style="display:inline;fill:#e6e6e6;stroke-width:0.287892"
       id="rect4411-8"
       width="56.959999"
       height="44"
       x="2.0000014"
       y="62.789021"
       inkscape:label="Display" />
  </g>
  <g
     inkscape:groupmode="layer"
     id="layer2"
     inkscape:label="components"
     style="display:none">
    <circle
       style="fill:#0000ff;stroke-width:0.0751086"
       id="path561"
       cx="8.7244787"
       cy="120.56165"
       inkscape:label="Susceptible"
       r="4.178" />
    <circle
       style="fill:#00ff00;stroke-width:0.0751086"
       id="path561-0-4"
       cx="18.955795"
       cy="20.936331"
       inkscape:label="Trigger"
       r="4.178" />
    <circle
       style="fill:#00ff00;stroke-width:0.0751086"
       id="path561-0-5"
       cx="42.451309"
       cy="20.936331"
       inkscape:label="Time"
       r="4.178" />
    <circle
       style="fill:#00ff00;stroke-width:0.0751086"
       id="path561-0-7"
       cx="7.178"
       cy="20.936331"
       inkscape:label="Initial Infected"
       r="4.178" />
    <circle
       style="display:inline;fill:#ff0000;stroke-width:0.0751086"
       id="path561-0-7-2"
       cx="7.178"
       cy="33.936344"
       inkscape:label="Initial Infected"
       r="4.178" />
    <circle
       style="display:inline;fill:#ff0000;stroke-width:0.0751086"
       id="path561-0-7-2-9"
       cx="19.0518"
       cy="34.308601"
       inkscape:label="Initial Infected"
       r="4.178" />
    <circle
       style="display:inline;fill:#ff0000;stroke-width:0.0751086"
       id="path561-0-7-2-5"
       cx="30.611317"
       cy="34.094536"
       inkscape:label="Initial Infected"
       r="4.178" />
    <circle
       style="display:inline;fill:#ff0000;stroke-width:0.0751086"
       id="path561-0-7-2-4"
       cx="42.598965"
       cy="33.666405"
       inkscape:label="Initial Infected"
       r="4.178" />
    <circle
       style="display:inline;fill:#ff0000;stroke-width:0.0751086"
       id="path561-0-7-2-91"
       cx="54.800682"
       cy="34.094536"
       inkscape:label="Initial Infected"
       r="4.178" />
    <circle
       style="fill:#00ff00;stroke-width:0.0751086"
       id="path561-0-4-1"
       cx="30.783878"
       cy="21.150396"
       inkscape:label="Infection Rate"
       r="4.178" />
    <circle
       style="fill:#00ff00;stroke-width:0.0751086"
       id="path561-0-5-0"
       cx="54.711018"
       cy="20.936331"
       inkscape:label="Recovery Rate"
       r="4.178" />
    <circle
       style="fill:#0000ff;stroke-width:0.0751086"
       id="path561-2"
       cx="29.973997"
       cy="120.25238"
       inkscape:label="Infected"
       r="4.178" />
    <circle
       style="fill:#0000ff;stroke-width:0.0751086"
       id="path561-9"
       cx="51.644527"
       cy="120.46645"
       inkscape:label="Recovered"
       r="4.178" />
    <rect
       style="fill:#ffff00;stroke-width:0.287892"
       id="rect4411"
       width="56.959999"
       height="44"
       x="2"
       y="62.789021"
       inkscape:label="Display" />
  </g>
</svg>
